<?xml version="1.0" encoding="UTF-8" standalone="no"?> <svg xmlns="http://www.w3.org/2000/svg" viewBox="0 0 64 64"><g id="Layer_38" data-name="Layer 38"><path d="M16.79,42.32a6.79,6.79,0,1,0,4.8,2A6.73,6.73,0,0,0,16.79,42.32Zm3.39,10.17a4.79,4.79,0,1,1,0-6.77A4.8,4.8,0,0,1,20.18,52.49Z"/><path d="M47.21,42.32a6.79,6.79,0,1,0,4.79,2A6.74,6.74,0,0,0,47.21,42.32Zm3.38,10.17a4.79,4.79,0,1,1,0-6.77A4.79,4.79,0,0,1,50.59,52.49Z"/><path d="M43.74,37.74,39.9,33.9,56.12,17.69a10.19,10.19,0,0,0,0-14.4,1,1,0,0,0-1.42,0L32,26,9.29,3.29a1,1,0,0,0-1.41,0,10.18,10.18,0,0,0,0,14.39L24.1,33.9l-3.83,3.84a11.9,11.9,0,1,0,7.89,7.9L32,41.8l3.84,3.84a11.89,11.89,0,1,0,7.9-7.9ZM55.37,5.46a8,8,0,0,1,1.73,5,8,8,0,0,1-2.4,5.78L38.49,32.49l-5.07-5.07ZM26.31,44.66a1.1,1.1,0,0,0-.09.14,1,1,0,0,0-.11.17,1,1,0,0,0-.06.25.43.43,0,0,0,0,.11.87.87,0,0,0,0,.36s0,0,0,0h0a0,0,0,0,0,0,0,9.9,9.9,0,1,1-5.91-5.93h.09a1.19,1.19,0,0,0,.26.05h0l.11,0a.88.88,0,0,0,.27-.06l.08-.06a1.35,1.35,0,0,0,.22-.14l4.26-4.28,5.08,5.08ZM54.2,56.1A9.89,9.89,0,0,1,37.91,45.71a.89.89,0,0,0,0-.14,1.81,1.81,0,0,0,0-.23.72.72,0,0,0,0-.19,1.16,1.16,0,0,0,0-.18.8.8,0,0,0-.13-.19s0-.09-.08-.12L26.22,33.19h0L9.29,16.27A8.07,8.07,0,0,1,6.9,10.48a8,8,0,0,1,1.73-5L31.28,28.11v0h0L42.76,39.58s.07.05.11.08a.69.69,0,0,0,.2.13,1.21,1.21,0,0,0,.18.05,1.08,1.08,0,0,0,.19,0,1.81,1.81,0,0,0,.23,0l.14,0A9.89,9.89,0,0,1,54.2,56.1Z"/><path d="M32,31a2.87,2.87,0,1,0,2.87,2.87A2.88,2.88,0,0,0,32,31Zm0,3.74a.87.87,0,1,1,.87-.87A.87.87,0,0,1,32,34.77Z"/></g></svg>