<?xml version="1.0" encoding="UTF-8" standalone="no"?> <svg width="101" height="101" viewBox="0 0 101 101" fill="none" xmlns="http://www.w3.org/2000/svg">
<path d="M91.72 42.9527H84.835V33.9527C84.835 33.1237 84.163 32.4527 83.335 32.4527H74.74C74.356 28.0207 69.003 24.9557 63.528 24.4727V13.9277C63.528 13.5257 63.366 13.1397 63.08 12.8577C62.792 12.5757 62.389 12.4127 62.002 12.4277C50.772 12.6227 43.466 16.3897 40.268 23.6307C33.282 23.9647 25.664 27.6677 25.155 32.4537H16.667C15.838 32.4537 15.167 33.1247 15.167 33.9537V42.9537H8.28101C7.45201 42.9537 6.78101 43.6247 6.78101 44.4537V71.0927C6.78101 80.1797 14.175 87.5727 23.264 87.5727H76.741C85.827 87.5727 93.22 80.1787 93.22 71.0927V44.4527C93.22 43.6247 92.548 42.9527 91.72 42.9527ZM41.283 26.6057C41.907 26.6057 42.466 26.2197 42.686 25.6357C45.053 19.3717 51.052 15.9587 60.527 15.4787V25.8977C60.527 26.7267 61.199 27.3977 62.027 27.3977C66.745 27.3977 71.216 29.7897 71.728 32.4517H28.18C28.878 29.9657 34.48 26.6057 41.283 26.6057ZM18.165 35.4527H81.835V42.9527H18.165V35.4527V35.4527ZM90.22 71.0917C90.22 78.5257 84.173 84.5717 76.741 84.5717H23.264C15.829 84.5717 9.78101 78.5247 9.78101 71.0917V45.9527H16.636C16.646 45.9527 16.655 45.9557 16.665 45.9557C16.675 45.9557 16.684 45.9527 16.694 45.9527H83.306C83.316 45.9527 83.325 45.9557 83.335 45.9557C83.345 45.9557 83.354 45.9527 83.364 45.9527H90.22V71.0917V71.0917Z" fill="black" stroke="black" stroke-width="2.2"/>
<path d="M27.87 76.8766C22.518 76.8766 18.165 72.5226 18.165 67.1726V51.2646C18.165 50.4356 17.494 49.7646 16.665 49.7646C15.836 49.7646 15.165 50.4356 15.165 51.2646V67.1726C15.165 74.1776 20.865 79.8766 27.87 79.8766C28.699 79.8766 29.37 79.2046 29.37 78.3766C29.37 77.5486 28.699 76.8766 27.87 76.8766Z" fill="black" stroke="black" stroke-width="2.2"/>
</svg>
